<svg width="24" height="24" viewBox="0 0 24 24" fill="none" xmlns="http://www.w3.org/2000/svg">
<path d="M9.70317 3.62095C10.494 1.49145 13.506 1.49145 14.2968 3.62095C14.8738 5.17463 16.474 6.09851 18.108 5.82136C20.3477 5.44149 21.8537 8.04996 20.4049 9.79959C19.3479 11.0761 19.3479 12.9239 20.4049 14.2004C21.8537 15.95 20.3477 18.5585 18.108 18.1786C16.474 17.9015 14.8738 18.8254 14.2968 20.379C13.506 22.5085 10.494 22.5085 9.70317 20.379C9.12618 18.8254 7.52596 17.9015 5.89195 18.1786C3.65233 18.5585 2.14633 15.95 3.59512 14.2004C4.65214 12.9239 4.65214 11.0761 3.59512 9.79959C2.14633 8.04996 3.65233 5.44149 5.89195 5.82136C7.52596 6.09851 9.12618 5.17463 9.70317 3.62095Z" stroke="#3F13FE"/>
<g clip-path="url(#clip0_67_3006)">
<path d="M10.9699 11.0777C10.7815 11.2036 10.56 11.2708 10.3333 11.2708C10.0294 11.2708 9.73799 11.1501 9.52311 10.9352C9.30822 10.7203 9.1875 10.4289 9.1875 10.125C9.1875 9.89834 9.2547 9.6768 9.38061 9.48837C9.50651 9.29994 9.68547 9.15307 9.89484 9.06635C10.1042 8.97962 10.3346 8.95693 10.5569 9.00114C10.7791 9.04536 10.9833 9.15449 11.1436 9.31473C11.3038 9.47498 11.4129 9.67915 11.4571 9.90142C11.5014 10.1237 11.4787 10.3541 11.3919 10.5635C11.3052 10.7728 11.1584 10.9518 10.9699 11.0777ZM10.8542 9.34546C10.7 9.24244 10.5188 9.18746 10.3333 9.18746C10.0847 9.18746 9.84624 9.28623 9.67042 9.46205C9.49461 9.63786 9.39583 9.87632 9.39583 10.125C9.39583 10.3104 9.45082 10.4916 9.55383 10.6458C9.65684 10.8 9.80326 10.9201 9.97457 10.9911C10.1459 11.0621 10.3344 11.0806 10.5162 11.0444C10.6981 11.0083 10.8651 10.919 10.9962 10.7879C11.1274 10.6568 11.2166 10.4897 11.2528 10.3079C11.289 10.126 11.2704 9.9375 11.1995 9.76619C11.1285 9.59489 11.0084 9.44847 10.8542 9.34546Z" fill="#3F13FE" stroke="#3F13FE" stroke-width="0.625"/>
<path d="M13.6666 12.8334C13.3782 12.8334 13.0963 12.9189 12.8564 13.0791C12.6166 13.2394 12.4297 13.4672 12.3193 13.7336C12.2089 14.0001 12.1801 14.2933 12.2363 14.5762C12.2926 14.8591 12.4315 15.119 12.6354 15.3229C12.8394 15.5269 13.0993 15.6657 13.3821 15.722C13.665 15.7783 13.9583 15.7494 14.2247 15.639C14.4912 15.5287 14.719 15.3417 14.8792 15.1019C15.0395 14.8621 15.125 14.5801 15.125 14.2917C15.125 13.9049 14.9713 13.534 14.6978 13.2605C14.4244 12.987 14.0534 12.8334 13.6666 12.8334ZM13.6666 14.9167C13.543 14.9167 13.4222 14.8801 13.3194 14.8114C13.2166 14.7427 13.1365 14.6451 13.0892 14.5309C13.0419 14.4167 13.0295 14.291 13.0537 14.1698C13.0778 14.0485 13.1373 13.9372 13.2247 13.8498C13.3121 13.7624 13.4235 13.7028 13.5447 13.6787C13.666 13.6546 13.7916 13.667 13.9058 13.7143C14.02 13.7616 14.1176 13.8417 14.1863 13.9445C14.255 14.0473 14.2916 14.1681 14.2916 14.2917C14.2916 14.4575 14.2258 14.6164 14.1086 14.7336C13.9914 14.8509 13.8324 14.9167 13.6666 14.9167Z" fill="#3F13FE"/>
<path d="M15.225 8.77503C15.1906 8.74051 15.1497 8.71313 15.1046 8.69444C15.0596 8.67576 15.0113 8.66614 14.9625 8.66614C14.9138 8.66614 14.8655 8.67576 14.8204 8.69444C14.7754 8.71313 14.7345 8.74051 14.7 8.77503L8.77502 14.7C8.70627 14.7702 8.66743 14.8643 8.66669 14.9625C8.66658 15.036 8.68826 15.1078 8.729 15.1689C8.76974 15.2299 8.8277 15.2776 8.89553 15.3057C8.96336 15.3338 9.03801 15.3411 9.11002 15.3268C9.18203 15.3124 9.24816 15.277 9.30002 15.225L15.225 9.30003C15.2595 9.26559 15.2869 9.22467 15.3056 9.17963C15.3243 9.13459 15.3339 9.0863 15.3339 9.03753C15.3339 8.98877 15.3243 8.94048 15.3056 8.89544C15.2869 8.85039 15.2595 8.80948 15.225 8.77503Z" fill="#3F13FE"/>
</g>
<defs>
<clipPath id="clip0_67_3006">
<rect width="10" height="10" fill="white" transform="translate(7 7)"/>
</clipPath>
</defs>
</svg>
